Patient4_TMGait_0pt4_02_right_12_EMG.mot
version=1
nRows=13
nColumns=33
inDegrees=no
endheader
time	1LAddLong	2LGlutMax	3LGlutMed	4LIliopsoas	5LSemiMemb	6LBicFemLong	7LRecFem	8LVastMed	9LVastLat	10LGasMed	11LTibAnt	12lTibPost	13LPeroneusLong	14LSol	15LExtDigLong	16LFlexDigLong	17RAddLong	18RGlutMax	19RGlutMed	20RIliopsoas	21RSemiMemb	22RBicFemLong	23RRecFem	24RVastMed	25RVastLat	26RGasMed	27RTibAnt	28RTibPost	29RPeroneusLong	30RSol	31RExtDigLong	32RFlexDigLong
16.3	0.011902	-0.096741	-0.0354	-0.005188	0.047302	-0.21088	-0.013733	0.00412	-0.011597	0.029297	-0.001831	0.016937	0.024872	-0.076904	0.001678	-0.000153	0.011139	0.041351	0.18402	-0.006714	0.024872	-0.06424	-0.12726	-0.026855	-0.018005	0.017548	-0.0383	0.024567	0.095062	-0.25971	-0.005493	-0.006409
16.301	0.021362	-0.079956	-0.029144	-0.009613	0.20844	0.04425	-0.030365	-0.009613	0.06546	0.017242	0	0.014801	0.045929	-0.097198	-0.005035	-0.002899	0.027313	-0.054321	0.10895	0.000458	0.024567	0.016174	-0.10666	0.024261	-0.026398	0.11871	-0.032959	-0.04715	0.14832	-0.39795	0.004578	-0.012665
16.302	0.025482	-0.080872	-0.004578	0.00473	0.27924	0.2034	-0.035248	-0.008087	0.13428	-0.009766	-0.01358	0.019836	0.1149	-0.061493	0.005035	0.004272	0.042725	-0.045624	0.14862	0.000763	0.013733	0.092316	-0.11734	0.011292	-0.029755	0.054169	0.11444	-0.14435	0.29144	-0.34943	-0.00351	-0.014648
16.303	0.001678	-0.010071	0.007324	-0.004578	0.13138	0.30823	-0.042419	0.002441	0.11566	0.007477	-0.014191	0.016785	-0.084839	0.067749	-0.005035	-0.009155	0.037231	-0.048523	0.12329	-0.021362	-0.10696	0.071564	-0.13611	0.034485	-0.016327	0.046692	0.22812	-0.34378	0.2359	-0.30579	-0.003357	-0.010376
16.304	-0.00885	-0.02533	-0.006714	0.007935	0.013275	0.25299	-0.067139	-0.002899	0.11734	0.020447	0.001373	0.020752	-0.082703	0.12436	-0.008392	-0.004578	0.014191	-0.023956	0.093536	0	0	0.010376	-0.14984	0.061951	-0.003967	0.036926	0.11383	0.17456	0.037689	-0.085297	-0.001068	-0.01709
16.305	-0.027771	-0.025024	-0.002136	0.000305	-0.054169	0.23529	-0.092621	0.009766	0.1091	0.012207	0.00412	0.021667	-0.006104	0.075378	-0.006409	-0.001831	-0.002899	-0.082855	0.13657	-0.020142	-0.11276	0.080872	-0.13275	-0.023041	-0.028992	0.033112	-0.019531	0.21378	0.001831	0.062866	0.003357	-0.02182
16.306	-0.030365	-0.024567	-0.002289	0.01236	-0.079956	0.20874	-0.10178	0.009613	0.036163	-0.001526	-0.009003	0.012512	0.006104	0.019073	-0.003052	-0.00473	-0.034332	-0.11841	0.098877	-0.027771	-0.089417	0.16357	-0.14221	-0.002594	-0.02182	0.039215	-0.15823	0.015564	-0.059357	0.03006	0.001221	-0.018463
16.307	-0.015869	-0.029907	-0.029297	0.003815	-0.04425	0.069122	-0.084991	0.006104	-0.044098	-0.012054	0.00885	0.027161	-0.13657	0.0354	0.005493	-0.004425	-0.018616	-0.13992	0.099335	0.041046	0.020142	0.26108	-0.13687	-0.029755	-0.031281	0.050659	-0.031738	-0.028534	-0.168	-0.04715	-0.001678	-0.022278
16.308	0.008392	-0.021362	-0.041656	0.01297	0.11292	-0.24933	-0.071259	-0.00946	-0.0914	-0.012054	-0.00061	0.019989	-0.039215	0.01709	0.002289	-0.00473	-0.005493	-0.12863	0.13001	0.097046	-0.002441	0.10773	-0.13031	0.042572	-0.00946	0.068207	0.011292	-0.014648	-0.15457	-0.19836	-0.000916	-0.018158
16.309	0.010834	-0.053864	-0.05127	0.015259	0.12344	-0.37811	-0.076294	-0.010986	-0.11749	0.066681	-0.000916	0.018463	-0.1767	0.007935	-0.005035	0.006561	-0.001678	-0.15778	0.14633	0.077667	0.12589	-0.072937	-0.16678	0.041962	-0.014038	0.02594	0.024261	-0.017548	-0.16647	-0.31326	0.000916	-0.016785
16.31	-0.00412	-0.067291	-0.022888	0.005951	0.013275	-0.19318	-0.035248	-0.005646	-0.08728	0.10498	-0.000305	0.023804	-0.1181	0.02594	0.007629	0.002289	0.00824	-0.14664	0.177	0.041504	0.10498	-0.20676	-0.19791	0.008087	-0.020294	-0.049438	0.001526	-0.019379	-0.121	-0.4483	-0.002136	-0.019226
16.311	-0.006256	-0.041962	-0.037384	0.002136	0.015564	-0.097351	-0.027161	-0.009308	-0.046082	0.11597	-0.000916	0.026093	-0.037689	0.064087	-0.00885	0.005035	0.020142	-0.13825	-0.021667	0.036926	0.030365	-0.30319	-0.2182	-0.051575	0.00946	-0.087738	-0.0177	-0.011292	0.027161	-0.34714	-0.00351	-0.009918
16.312	0.000916	-0.007782	-0.056458	0.00473	0.045166	-0.096436	-0.038757	-0.003357	-0.006409	0.087433	-0.002747	0.027771	0.03479	0.1239	-0.02533	0.015411	0.044403	-0.23529	-0.017548	-0.018921	0.00946	-0.22919	-0.19409	-0.07782	0.004883	-0.087128	-0.041199	-0.016174	-0.13443	0.032501	-0.001831	-0.020752
